# xmcd
# 
# Track frame offsets:
#     150
#     19189
#     48852
#     93907
#     130671
#     154041
#     174661
#     189281
#     224350
# 
# Disc length: 3694
# 
# Revision: 2
# Processed by: cddbd v1.5.2PL0 Copyright (c) Steve Scherf et al.
# Submitted via: BonkEnc v1.0.6
# 
DISCID=6c0e6c09
DTITLE=Donny McCaslin - In Pursuit
DYEAR=2007
DGENRE=Jazz
TTITLE0=A Brief Tale
TTITLE1=Descarga 
TTITLE2=Madonna
TTITLE3=Sea Of Expectancy 
TTITLE4=In Pursuit
TTITLE5=Village Natural
TTITLE6=Send Me A Postcard
TTITLE7=Fast Brazil 
TTITLE8=Festival In 3 Parts
EXTD=YEAR: 2007
EXTT0=
EXTT1=
EXTT2=
EXTT3=
EXTT4=
EXTT5=
EXTT6=
EXTT7=
EXTT8=
PLAYORDER=
